<svg width="37" height="37" viewBox="0 0 37 37" fill="none" xmlns="http://www.w3.org/2000/svg">
<path fill-rule="evenodd" clip-rule="evenodd" d="M17.5784 5.18706C16.4186 5.33075 15.0824 5.79758 14.2018 6.36669L13.7207 6.67762L13.2017 6.54473C12.0432 6.24805 10.2834 6.41858 8.53473 6.99692C7.87092 7.21652 5.84021 8.16403 5.1829 8.56089L4.88316 8.74183L3.10899 8.2923C2.13315 8.04507 1.22908 7.84308 1.09995 7.84347C0.822673 7.84425 0.446864 8.07332 0.305838 8.32752C0.226325 8.47081 0.20496 10.0262 0.20269 15.8337L0.199951 23.159L0.378777 23.425C0.632969 23.8031 0.930673 23.8771 2.21947 23.8822L3.33899 23.8865L7.91569 27.5061C10.4329 29.4969 12.6761 31.2413 12.9005 31.3824C14.2965 32.2608 16.0319 31.8955 16.9762 30.5246L17.2784 30.0857L17.6414 30.2517C17.9291 30.3831 18.1583 30.4177 18.7478 30.4186C19.3895 30.4195 19.552 30.3914 19.9354 30.2123C20.46 29.9673 21.0315 29.4629 21.2963 29.0111L21.4858 28.6877L22.0538 28.8789C22.5236 29.037 22.7196 29.0628 23.1883 29.0279C23.8055 28.982 24.455 28.732 24.8786 28.3774C25.1209 28.1745 25.6718 27.4929 25.7268 27.3278C25.7441 27.2758 25.9015 27.3101 26.1447 27.419C26.4495 27.5554 26.6801 27.5935 27.2 27.5934C28.0575 27.5931 28.6027 27.3887 29.1982 26.8445C29.8256 26.2711 30.0942 25.7528 30.2104 24.8915L30.2596 24.5268L31.2658 24.2067L32.2719 23.8865L33.7859 23.8822C35.4946 23.8772 35.7526 23.8244 36.0211 23.425L36.2 23.159L36.1972 15.8337C36.1949 10.0262 36.1736 8.47081 36.0941 8.32752C35.9378 8.04585 35.5705 7.84371 35.2217 7.84738C35.0495 7.84918 34.0492 8.07278 32.9988 8.34418L31.0889 8.8377L30.5349 8.73212C29.4154 8.51886 26.7484 7.59554 23.7956 6.39917C23.0208 6.08526 22.158 5.75477 21.8782 5.66469C20.5812 5.2474 18.7413 5.04299 17.5784 5.18706ZM20.666 7.40153C21.0969 7.50891 22.3647 7.96485 23.4833 8.41462C24.6021 8.86446 26.0897 9.43138 26.7893 9.67446C28.0211 10.1024 29.8564 10.6592 30.0432 10.6616C30.0935 10.6623 30.1767 10.6896 30.228 10.7221C30.2917 10.7627 30.4608 12.5743 30.7617 16.4417C31.0038 19.5548 31.1896 22.1143 31.1745 22.1294C31.1594 22.1445 30.7852 22.2712 30.3431 22.4109L29.5392 22.6648L24.6791 17.8047L19.8189 12.9445L20.171 12.5264C20.8575 11.7112 21.1902 11.1973 21.2316 10.8885C21.3152 10.2657 20.9021 9.78653 20.2815 9.78653C20.0939 9.78653 19.864 9.83349 19.7706 9.89093C19.6772 9.9483 19.3488 10.3298 19.0409 10.7387C17.7683 12.4292 16.2791 13.6874 15.1426 14.0327C13.8661 14.4204 12.3637 13.9723 11.8884 13.0621C11.7148 12.7295 11.7381 12.1244 11.9396 11.7359C12.6641 10.3386 14.0924 8.77806 15.3496 8.01056C15.8458 7.70761 16.6738 7.39136 17.3391 7.25057C18.1147 7.08645 19.6886 7.15791 20.666 7.40153ZM11.7347 8.48873C11.7034 8.54258 11.5454 8.74676 11.3838 8.94265C10.7618 9.69614 10.0544 10.8564 9.89201 11.3893C9.64291 12.2069 9.70685 13.1755 10.0583 13.9083C10.7084 15.2638 12.3995 16.2113 14.1766 16.2157C15.2709 16.2183 16.7132 15.6861 17.7614 14.8927C18.0339 14.6864 18.301 14.4904 18.3549 14.4571C18.4636 14.3899 27.9079 23.7662 28.105 24.137C28.3478 24.5939 28.2032 25.1275 27.7547 25.4299C27.4509 25.6346 27.1283 25.6575 26.8243 25.496C26.7081 25.4342 25.0634 23.8282 23.1695 21.9272C21.2756 20.0262 19.5887 18.3686 19.4208 18.2439C18.9099 17.8641 18.1879 17.9801 17.9274 18.484C17.7717 18.785 17.7762 19.2637 17.937 19.5061C18.0076 19.6125 19.3786 21.0202 20.9836 22.6344C24.1695 25.8383 24.1414 25.8017 23.8849 26.4156C23.6795 26.9072 23.0178 27.1637 22.5578 26.9302C22.4638 26.8824 21.031 25.4938 19.3739 23.8444C16.0846 20.5705 16.1296 20.6054 15.5144 20.8625C15.1464 21.0162 14.9137 21.3978 14.9133 21.8476L14.913 22.1957L17.2917 24.5867C19.833 27.1414 19.8736 27.195 19.6878 27.7576C19.546 28.1874 19.2034 28.4257 18.7274 28.4257H18.3278L15.9291 26.0387L13.5304 23.6518H13.1577C12.9527 23.6518 12.6875 23.7094 12.5683 23.7798C12.1332 24.0368 11.9723 24.6011 12.2078 25.0448C12.2694 25.161 12.9761 25.9076 13.7782 26.7039C14.5803 27.5002 15.2911 28.2548 15.3578 28.3806C15.7273 29.0785 15.2566 29.8344 14.4523 29.8344C14.161 29.8344 13.9182 29.6596 10.7897 27.1985C8.94685 25.7487 6.83162 24.0846 6.08908 23.5006C4.96627 22.6174 4.73908 22.4048 4.73908 22.2374C4.73908 21.7127 6.00284 10.4669 6.07108 10.3847C6.18378 10.2488 7.88556 9.38255 8.57386 9.11059C9.59924 8.70544 10.75 8.42933 11.5328 8.40045C11.72 8.39357 11.776 8.41806 11.7347 8.48873ZM3.21299 10.3776L3.91734 10.5566L3.90255 10.902C3.89441 11.092 3.63177 13.6334 3.3188 16.5496L2.74985 21.8518H2.45316H2.15647V15.9807V10.1097L2.33256 10.154C2.42937 10.1785 2.8256 10.279 3.21299 10.3776ZM34.2434 15.9822V21.8518H33.6956C33.3943 21.8518 33.1478 21.8322 33.1478 21.8083C33.1478 21.7845 32.9538 19.2609 32.7166 16.2004C32.4794 13.1399 32.2951 10.6261 32.307 10.6143C32.3285 10.5928 34.0731 10.1333 34.1847 10.1198C34.2171 10.1159 34.2434 12.7539 34.2434 15.9822Z" fill="#FF484D"/>
</svg>
